# xmcd
#
# Track frame offsets:
#	150
#	1200
#	16275
#	27080
#	45302
#	64477
#	76857
#	94517
#	109192
#	123847
#
# Disc length: 1814 seconds
#
# Revision: 7
# Processed by: cddbd v1.4PL0 Copyright (c) Steve Scherf et al.
# Submitted via: audiograbber 1.81.03
#
DISCID=6907140a
DTITLE=Snidely Whiplash - Bootlicker
DYEAR=1994
DGENRE=Rock
TTITLE0=The`14 Second Sonata For Robert Wiseman III
TTITLE1=Taramosalata
TTITLE2=Aspiring to Be a Rocket Scientist MA
TTITLE3=Analizing Exposure to Egos Attitudes and Assholes
TTITLE4=Anaphora
TTITLE5=Mourning Dead Deliborators (wait and see)
TTITLE6=Bootlicker
TTITLE7=Backlash
TTITLE8=Linear Thought
TTITLE9=Betrunken (drunk again)
EXTD=
EXTT0=
EXTT1=
EXTT2=
EXTT3=
EXTT4=
EXTT5=
EXTT6=
EXTT7=
EXTT8=
EXTT9=
PLAYORDER=
